# xmcd
#
# Track frame offsets: 
#        150
#        14680
#        32317
#        55210
#        78480
#        101850
#        132112
#        148632
#        172325
#        198967
#        221587
#        238455
#        270225
#
# Disc length: 4442 seconds
#
# Revision: 2
# Processed by: cddbd v1.5.2PL0 Copyright (c) Steve Scherf et al.
# Submitted via: ExactAudioCopyFreeDBPlugin 1.0
#
DISCID=bd11580d
DTITLE=Jairzinho Oliveira - Dis'ritmia
DYEAR=2001
DGENRE=MPB
TTITLE0=Música É...
TTITLE1=Disritmia
TTITLE2=Você Por Perto
TTITLE3=Dia Quente
TTITLE4=Falta Dizer
TTITLE5=Chore A Chuva
TTITLE6=Papo De Psicólogo
TTITLE7=Olha Aí
TTITLE8=Vivo Andando
TTITLE9=Esquece
TTITLE10=Vem-Q-Tem
TTITLE11=Dia Quente (Groove Mix)
TTITLE12=Você Dorme
EXTD=\nYEAR: 2001  ID3G:  17
EXTT0=
EXTT1=
EXTT2=
EXTT3=
EXTT4=
EXTT5=
EXTT6=
EXTT7=
EXTT8=
EXTT9=
EXTT10=
EXTT11=
EXTT12=
PLAYORDER=
